<svg id="Layer_1" enable-background="new 0 0 512 512" height="512" viewBox="0 0 512 512" width="512" xmlns="http://www.w3.org/2000/svg"><path d="m256 31c-124.3 0-225 100.7-225 225s100.7 225 225 225 225-100.7 225-225-100.7-225-225-225zm109.5 203.3c-3.6 0-35-.6-64-21.5v90.7c0 42.8-34.8 77.6-77.6 77.6s-77.6-34.8-77.6-77.6 34.8-77.6 77.6-77.6h12.6v40h-12.6c-20.7 0-37.6 16.9-37.6 37.6s16.9 37.6 37.6 37.6 37.6-16.9 37.6-37.6v-172.5h40v1.3c.9 9.7 6.6 35.8 23 47.8 18.8 13.8 40.9 14.2 41.1 14.2h-.1z"/></svg>